<?xml version="1.0" encoding="UTF-8" standalone="no"?>
<!-- Created with Inkscape (http://www.inkscape.org/) -->

<svg
   xmlns:dc="http://purl.org/dc/elements/1.1/"
   xmlns:cc="http://creativecommons.org/ns#"
   xmlns:rdf="http://www.w3.org/1999/02/22-rdf-syntax-ns#"
   xmlns:svg="http://www.w3.org/2000/svg"
   xmlns="http://www.w3.org/2000/svg"
   xmlns:sodipodi="http://sodipodi.sourceforge.net/DTD/sodipodi-0.dtd"
   xmlns:inkscape="http://www.inkscape.org/namespaces/inkscape"
   id="svg2"
   version="1.1"
   inkscape:version="0.48.2 r9819"
   width="198.35001"
   height="70.849998"
   xml:space="preserve"
   sodipodi:docname="kuleuven_CMYK_logo.svg"><metadata
     id="metadata8"><rdf:RDF><cc:Work
         rdf:about=""><dc:format>image/svg+xml</dc:format><dc:type
           rdf:resource="http://purl.org/dc/dcmitype/StillImage" /><dc:title /></cc:Work></rdf:RDF></metadata><defs
     id="defs6"><clipPath
       clipPathUnits="userSpaceOnUse"
       id="clipPath18"><path
         d="M 0,566.934 0,0 l 1587.4,0 0,566.934 -1587.4,0 z"
         id="path20"
         inkscape:connector-curvature="0" /></clipPath></defs><sodipodi:namedview
     pagecolor="#ffffff"
     bordercolor="#666666"
     borderopacity="1"
     objecttolerance="10"
     gridtolerance="10"
     guidetolerance="10"
     inkscape:pageopacity="0"
     inkscape:pageshadow="2"
     inkscape:window-width="1280"
     inkscape:window-height="962"
     id="namedview4"
     showgrid="false"
     inkscape:zoom="2.8284271"
     inkscape:cx="101.19103"
     inkscape:cy="84.971061"
     inkscape:window-x="-8"
     inkscape:window-y="-8"
     inkscape:window-maximized="1"
     inkscape:current-layer="g10" /><g
     id="g10"
     inkscape:groupmode="layer"
     inkscape:label="kuleuven_CMYK_logo"
     transform="matrix(1.25,0,0,-1.25,0,70.850003)"><g
       id="g3808"><path
         d="m 5.66914,0 153.071,0 0,51.0238 -153.071,0 0,-51.0238 z"
         style="fill:#123c75;fill-opacity:1;fill-rule:nonzero;stroke:none"
         id="path22"
         inkscape:connector-curvature="0" /><path
         d="M 0,56.6934 0,0 l 5.66914,0 0,51.0238 153.07086,0 0,5.6696 -158.74,0"
         style="fill:#6ac2ee;fill-opacity:1;fill-rule:nonzero;stroke:none"
         id="path24"
         inkscape:connector-curvature="0" /></g><g
       id="g3798"><path
         d="m 17.0078,34.016 5.0711,0 0,-5.8582 0.0473,0 4.5191,5.8582 6.2473,0 -5.9707,-6.6457 6.9394,-10.3625 -6.3175,0 -4.0575,6.6223 -1.4074,-1.5938 0,-5.0285 -5.0711,0 0,17.0082"
         style="fill:#ffffff;fill-opacity:1;fill-rule:nonzero;stroke:none"
         id="path26"
         inkscape:connector-curvature="0" /><path
         d="m 49.0793,23.5879 c 0,-4.7129 -2.4672,-6.9766 -7.4934,-6.9766 -5.0254,0 -7.5156,2.2637 -7.5156,6.9766 l 0,10.4281 5.0723,0 0,-9.2621 c 0,-1.7383 0,-3.9043 2.4668,-3.9043 2.3984,0 2.3984,2.166 2.3984,3.9043 l 0,9.2621 5.0715,0 0,-10.4281"
         style="fill:#ffffff;fill-opacity:1;fill-rule:nonzero;stroke:none"
         id="path28"
         inkscape:connector-curvature="0" /><path
         d="m 56.518,34.016 5.0734,0 0,-12.6469 7.1559,0 0,-4.3613 -12.2293,0 0,17.0082"
         style="fill:#ffffff;fill-opacity:1;fill-rule:nonzero;stroke:none"
         id="path30"
         inkscape:connector-curvature="0" /><path
         d="m 70.3008,34.016 13.4988,0 0,-4.3578 -8.4734,0 0,-2.1219 7.6965,0 0,-4.0492 -7.6965,0 0,-2.118 8.7226,0 0,-4.3613 -13.748,0 0,17.0082"
         style="fill:#ffffff;fill-opacity:1;fill-rule:nonzero;stroke:none"
         id="path32"
         inkscape:connector-curvature="0" /><path
         d="m 100.361,23.5879 c 0,-4.7129 -2.4665,-6.9766 -7.4919,-6.9766 -5.0273,0 -7.5156,2.2637 -7.5156,6.9766 l 0,10.4281 5.0703,0 0,-9.2621 c 0,-1.7383 0,-3.9043 2.4668,-3.9043 2.3985,0 2.3985,2.166 2.3985,3.9043 l 0,9.2621 5.0719,0 0,-10.4281"
         style="fill:#ffffff;fill-opacity:1;fill-rule:nonzero;stroke:none"
         id="path34"
         inkscape:connector-curvature="0" /><path
         d="m 111.661,17.0078 -5.672,0 -4.912,17.0082 5.119,0 2.698,-10.3137 0.046,0 2.651,10.3137 5.211,0 -5.141,-17.0082"
         style="fill:#ffffff;fill-opacity:1;fill-rule:nonzero;stroke:none"
         id="path36"
         inkscape:connector-curvature="0" /><path
         d="m 117.518,34.016 13.496,0 0,-4.3578 -8.473,0 0,-2.1219 7.697,0 0,-4.0492 -7.697,0 0,-2.118 8.725,0 0,-4.3613 -13.748,0 0,17.0082"
         style="fill:#ffffff;fill-opacity:1;fill-rule:nonzero;stroke:none"
         id="path38"
         inkscape:connector-curvature="0" /><path
         d="m 132.577,34.016 5.188,0 4.795,-9.098 0.046,0 0,9.098 4.795,0 0,-17.0082 -4.933,0 -5.049,9.2918 -0.047,0 0,-9.2918 -4.795,0 0,17.0082"
         style="fill:#ffffff;fill-opacity:1;fill-rule:nonzero;stroke:none"
         id="path40"
         inkscape:connector-curvature="0" /></g></g></svg>